<?xml version="1.0" encoding="UTF-8" standalone="no"?>
<svg width="172px" height="167px" viewBox="0 0 172 167" version="1.1" xmlns="http://www.w3.org/2000/svg" xmlns:xlink="http://www.w3.org/1999/xlink">
    <!-- Generator: Sketch 49.1 (51147) - http://www.bohemiancoding.com/sketch -->
    <title>logotype</title>
    <desc>Created with Sketch.</desc>
    <defs>
      <radialGradient id="radialGradient">
        <stop offset="10%" stop-color="#FFFFFF" stop-opacity="0"/>
        <stop offset="70%" stop-color="#FFFFFF" stop-opacity="0.1"/>
        <stop offset="90%" stop-color="#FFFFFF" stop-opacity=".2"/>
      </radialGradient>
    </defs>
    <g id="Page-1" stroke="none" stroke-width="1" fill="none" fill-rule="evenodd">
        <polygon id="Polygon-2" stroke="#000000" fill="#2B4162" points="86 1 135.961746 16.756098 166.839804 58.006098 166.839804 108.993902 135.961746 150.243902 86 166 36.0382536 150.243902 5.16019611 108.993902 5.16019611 58.006098 36.0382536 16.756098"></polygon>
        <!-- <polygon id="Polygon-2" stroke="#000000" fill="url(#radialGradient)" points="86 1 135.961746 16.756098 166.839804 58.006098 166.839804 108.993902 135.961746 150.243902 86 166 36.0382536 150.243902 5.16019611 108.993902 5.16019611 58.006098 36.0382536 16.756098"></polygon> -->
        <path d="M48.4596163,130.522603 L105.609616,42.4726031 C106.209616,41.4226031 106.209616,41.2726031 104.859616,41.2726031 C61.6596163,41.2726031 56.4096163,42.1726031 49.8096163,58.8226031 C49.5096163,59.4226031 47.8596163,58.9726031 48.0096163,58.5226031 L54.0096163,34.2226031 C54.1596163,33.7726031 55.9596163,34.0726031 55.8096163,34.5226031 C55.2096163,38.1226031 56.7096163,38.7226031 64.3596163,38.7226031 L119.109616,38.7226031 C120.009616,38.7226031 120.759616,40.0726031 120.159616,40.6726031 L63.7596163,128.422603 C63.0096163,129.472603 63.1596163,129.622603 64.3596163,129.622603 L100.059616,129.622603 C112.659616,129.622603 120.759616,123.022603 122.859616,111.322603 C123.009616,110.872603 124.509616,110.872603 124.509616,111.322603 L122.409616,131.272603 C122.409616,131.872603 121.959616,132.772603 121.059616,132.772603 C98.7096163,132.472603 71.5596163,132.472603 49.2096163,132.472603 C48.4596163,132.472603 47.8596163,131.272603 48.4596163,130.522603 Z" id="Z" fill="#FA9F42"></path>
        <text id="S" font-family="Cormorant-Light, Cormorant" font-size="87" font-weight="300" fill="#FFFFFF">
            <tspan x="65" y="111">S</tspan>
        </text>
    </g>
</svg>
